<?xml version="1.0" standalone="no"?>
<!DOCTYPE svg PUBLIC "-//W3C//DTD SVG 1.1//EN" "http://www.w3.org/Graphics/SVG/1.1/DTD/svg11.dtd" >
<svg xmlns="http://www.w3.org/2000/svg">
<metadata></metadata>
<defs>
<font id="alternate_gothic_no1_dregular" horiz-adv-x="696" >
<font-face units-per-em="2048" ascent="1638" descent="-410" />
<missing-glyph horiz-adv-x="354" />
<glyph horiz-adv-x="0" />
<glyph horiz-adv-x="682" />
<glyph horiz-adv-x="1024" d="M324 1274l98 67q29 -20 47 -27t43 -7q23 0 41 7t47 27l98 -67q-25 -47 -76 -75t-110 -28t-111.5 28t-76.5 75z" />
<glyph horiz-adv-x="1024" d="M424 1184v182h178v-182h-178z" />
<glyph horiz-adv-x="1024" d="M362 1288q0 59 44.5 100.5t107.5 41.5q61 0 105.5 -41t44.5 -101q0 -59 -44.5 -101t-105.5 -42q-63 0 -107.5 42t-44.5 101zM438 1288q0 -29 21.5 -50t54.5 -21q31 0 52.5 21.5t21.5 49.5q0 29 -21.5 49.5t-54.5 20.5q-29 0 -51.5 -20.5t-22.5 -49.5z" />
<glyph unicode="&#xa;" horiz-adv-x="1024" d="M317 1184l80 153h170l-127 -153h-123zM567 1184l80 153h170l-127 -153h-123z" />
<glyph horiz-adv-x="1024" d="M412 -180q0 47 24.5 89t81.5 91h94q-47 -41 -68.5 -72.5t-21.5 -66.5q0 -68 88 -68q16 0 27.5 2t30.5 8l-17 -104q-20 -10 -34.5 -12t-36.5 -2q-78 0 -123 36.5t-45 98.5z" />
<glyph horiz-adv-x="1024" d="M324 1339h143l45 -53l45 53h143l-92 -155h-192z" />
<glyph unicode="&#xd;" horiz-adv-x="354" />
<glyph horiz-adv-x="174" d="M-158 -68l387 1502h101l-393 -1502h-95z" />
<glyph horiz-adv-x="673" d="M23 854v164h79v119q0 123 50.5 178t164.5 55q33 0 65 -2t97 -8v-164q-41 4 -66.5 6t-56.5 2q-41 0 -58 -15t-17 -52v-119h317v-1018h-178v854h-139v-854h-179v854h-79z" />
<glyph horiz-adv-x="673" d="M23 854v164h79v119q0 125 51.5 179t168.5 54h23t22 -2l53 -2h178v-1366h-178v1200q-31 4 -46.5 4h-23.5q-70 0 -69 -67v-119h84v-164h-84v-854h-179v854h-79z" />
<glyph horiz-adv-x="575" d="M27 530v207l55 41v588h190v-467l144 109v-207l-144 -109v-514h269v-178h-459v571z" />
<glyph horiz-adv-x="417" d="M27 535v192l92 72v567h178v-451l94 72v-194l-94 -72v-721h-178v606z" />
<glyph horiz-adv-x="641" d="M55 0v178l340 1010h-301v178h492v-178l-340 -1010h340v-178h-531zM133 1630h143l46 -53l45 53h143l-92 -155h-193z" />
<glyph horiz-adv-x="559" d="M55 0v152l262 702h-231v164h418v-152l-254 -702h254v-164h-449zM92 1339h144l45 -53l45 53h143l-92 -155h-193z" />
<glyph unicode=" "  horiz-adv-x="354" />
<glyph unicode="&#x09;" horiz-adv-x="354" />
<glyph unicode="&#xa0;" horiz-adv-x="354" />
<glyph unicode="!" horiz-adv-x="458" d="M123 1366h213l-49 -983h-121zM133 0v205h191v-205h-191z" />
<glyph unicode="&#x22;" horiz-adv-x="720" d="M92 1366h207l-33 -547h-141zM424 1366h207l-33 -547h-141z" />
<glyph unicode="#" horiz-adv-x="749" d="M78 373l20 139h82l45 326h-88l23 137h84l55 391h98l-53 -389h129l53 389h101l-54 -389h82l-18 -139h-84l-45 -326h92l-20 -139h-91l-51 -373h-100l51 373h-129l-51 -373h-100l53 373h-84zM281 512h129l45 326h-129z" />
<glyph unicode="$" d="M88 346v30.5t2 37.5l178 10v-55q0 -100 19.5 -138t70.5 -38q84 0 84 126q0 31 -5 57.5t-17 54.5t-33.5 61.5t-54.5 76.5l-88 131q-41 61 -70 109.5t-46 91.5t-24.5 82t-7.5 82q0 102 46 170t137 92v121h153v-117q98 -29 140 -107.5t36 -228.5l-176 -18q0 47 -1 71.5 t-5 45.5q-10 80 -72 80q-78 0 -78 -119q0 -29 3.5 -50.5t15.5 -49t37.5 -67.5t70.5 -106l91 -131q70 -102 99.5 -177t29.5 -155q0 -106 -49.5 -177.5t-141.5 -100.5v-123h-153v117q-61 16 -109 59q-47 45 -64.5 100.5t-17.5 151.5z" />
<glyph unicode="%" horiz-adv-x="970" d="M82 831v355q0 63 4 87.5t18 47.5q39 59 121 59q80 0 119 -59q14 -23 18.5 -47.5t4.5 -87.5v-355q0 -33 -1 -53t-3.5 -34.5t-7.5 -25.5t-11 -24q-39 -59 -121 -59q-37 0 -68.5 15.5t-50.5 43.5q-6 12 -11 23.5t-7 26t-3 35t-1 52.5zM182 795q0 -59 43 -60q41 0 41 60v428 q0 59 -41 59q-43 0 -43 -59v-428zM242 -68l387 1502h100l-393 -1502h-94zM604 182v355q0 63 4 87.5t19 47.5q39 59 121 59q80 0 118 -59q14 -23 18.5 -47.5t4.5 -87.5v-355q0 -33 -1 -53t-3 -34.5t-7.5 -26t-11.5 -23.5q-39 -59 -121 -59q-37 0 -68.5 15t-49.5 44 q-6 12 -11.5 23.5t-7.5 26t-3 35t-1 52.5zM705 145q0 -59 43 -59q41 0 40 59v428q0 59 -40 60q-43 0 -43 -60v-428z" />
<glyph unicode="&#x26;" horiz-adv-x="856" d="M96 303q0 182 144 393q-20 43 -38 93.5t-31 102.5t-20.5 101t-7.5 88q0 123 65.5 197t174.5 74q98 0 161.5 -67.5t63.5 -176.5q0 -96 -45 -196.5t-145 -231.5q18 -45 33.5 -80t32 -65.5t36 -60.5t45.5 -66q12 29 20.5 52t14.5 49t12 56.5t15 75.5l161 -20 q-10 -98 -36.5 -181.5t-73.5 -169.5q12 -16 21.5 -27.5t19.5 -19.5t22.5 -16t30.5 -17v-204q-84 25 -190 125q-63 -70 -119.5 -97.5t-132.5 -27.5q-104 0 -169 89t-65 228zM260 315q0 -74 25.5 -116.5t68.5 -42.5q35 0 60.5 17t60.5 63q-18 25 -41.5 62.5t-47.5 79.5 t-43.5 79t-27.5 57q-31 -59 -43 -103t-12 -96zM301 1085q0 -67 49 -229q55 86 78 142.5t23 107.5q0 43 -18.5 67.5t-49.5 24.5q-39 0 -60.5 -29.5t-21.5 -83.5z" />
<glyph unicode="'" horiz-adv-x="395" d="M92 1366h213l-33 -547h-147z" />
<glyph unicode="(" horiz-adv-x="559" d="M82 594q0 215 67.5 419t212.5 429l130 -74q-121 -197 -176.5 -383t-55.5 -391t54.5 -390.5t177.5 -383.5l-130 -74q-145 225 -212.5 429t-67.5 419z" />
<glyph unicode=")" horiz-adv-x="559" d="M68 -180q119 197 175 383t56 391t-56.5 391t-174.5 383l127 74q145 -225 213.5 -429t68.5 -419t-68.5 -420t-213.5 -428z" />
<glyph unicode="*" horiz-adv-x="641" d="M82 1206l47 142l131 -62l-14 148h149l-14 -148l131 64l47 -144l-143 -30l98 -107l-121 -88l-71 125l-74 -125l-121 88l98 107z" />
<glyph unicode="+" d="M76 641v135h196v221h150v-221h199v-135h-199v-219h-150v219h-196z" />
<glyph unicode="," horiz-adv-x="382" d="M96 0v205h191v-205l-86 -244h-105l70 244h-70z" />
<glyph unicode="-" horiz-adv-x="256" d="M0 428v160h256v-160h-256z" />
<glyph unicode="." horiz-adv-x="382" d="M96 0v205h191v-205h-191z" />
<glyph unicode="/" horiz-adv-x="636" d="M35 -137l428 1503h127l-434 -1503h-121z" />
<glyph unicode="0" d="M78 348v672q0 61 1 100t6 66.5t13 47t23 42.5q35 51 95 80.5t132 29.5t132.5 -29.5t94.5 -80.5q14 -23 22.5 -42.5t12.5 -47t6 -66.5t2 -100v-672q0 -61 -2 -100t-6 -66.5t-12 -47t-23 -42.5q-35 -53 -95 -82.5t-132 -29.5t-132 29.5t-95 82.5q-14 23 -22.5 42.5 t-13.5 47t-6 66.5t-1 100zM268 268q0 -59 18.5 -84.5t61.5 -25.5q41 0 60.5 25.5t19.5 84.5v830q0 59 -18.5 84.5t-61.5 25.5q-41 0 -60.5 -25.5t-19.5 -84.5v-830z" />
<glyph unicode="1" horiz-adv-x="409" d="M39 1100v137q31 16 52.5 30.5t41 29t36.5 30.5t38 39h119v-1366h-191v1100h-96z" />
<glyph unicode="2" d="M84 0v158q20 37 32.5 62.5t31 60t47 94t81.5 164.5q47 94 76 160.5t44.5 119.5t20.5 103.5t5 115.5q0 102 -13.5 137t-52.5 35q-25 0 -39 -10t-23 -36.5t-13.5 -74t-4.5 -120.5h-178q-2 23 -2 38v25q0 174 70 264t199 90q119 0 181 -75.5t62 -218.5q0 -270 -174 -623 q-4 -8 -43 -80t-115 -211h320v-178h-512z" />
<glyph unicode="3" d="M82 307v39t2 45h186q-2 -18 -2 -29.5v-23.5q0 -100 17.5 -140t60.5 -40q37 0 53 32q6 16 8.5 34t2.5 73v186q0 78 -31 113t-96 35h-25v174q45 2 67.5 9t41.5 26q43 45 43 110v183q0 76 -60 75q-55 0 -63 -51q-2 -8 -3 -16t-2 -23.5t-1 -42v-71.5h-179v43q0 143 35 215 q29 59 82 91.5t125 32.5q57 0 105.5 -22.5t78.5 -63.5q33 -43 45.5 -97t12.5 -152q0 -84 -3 -136.5t-13.5 -86t-30 -55t-52.5 -46.5q39 -16 61.5 -34.5t34 -58.5t14.5 -110.5t3 -193.5q0 -182 -64.5 -266t-201.5 -84q-129 0 -190.5 79.5t-61.5 247.5z" />
<glyph unicode="4" d="M47 305v178l309 883h191v-883h76v-178h-76v-305h-191v305h-309zM207 483h149v494z" />
<glyph unicode="5" d="M86 301v42t4 44h178v-51q0 -94 18.5 -136t61.5 -42q68 0 68 108v412q0 98 -60 98q-59 0 -88 -110h-162l21 700h444l-6 -178h-282l-15 -330q41 53 76 74.5t76 21.5q90 0 138 -81.5t48 -231.5v-317q0 -104 -12 -156.5t-47 -95.5t-89.5 -67.5t-117.5 -24.5 q-123 0 -188.5 82.5t-65.5 238.5z" />
<glyph unicode="6" d="M82 270v834q0 129 69.5 205.5t186.5 76.5q80 0 141.5 -38.5t89.5 -110.5q14 -35 20.5 -85t6.5 -134h-180q2 20 2 31.5v23.5q0 72 -17.5 103.5t-56.5 31.5t-59 -34q-8 -12 -10.5 -33t-2.5 -62v-303q41 43 75 61.5t75 18.5q88 0 139 -72q14 -23 24.5 -45t16.5 -53t8 -72 t2 -100v-229q0 -143 -71.5 -224t-198.5 -81q-121 0 -190.5 77.5t-69.5 212.5zM272 240q0 -35 20.5 -58.5t53.5 -23.5q76 0 76 98v295q0 86 -13.5 115.5t-48.5 29.5q-49 0 -88 -49v-407z" />
<glyph unicode="7" d="M94 1188v178h488v-109l-203 -1257h-199l201 1188h-287z" />
<glyph unicode="8" d="M88 330q0 123 3 193.5t14.5 110.5t34 58.5t63.5 34.5q-35 25 -54.5 47.5t-29.5 56t-13.5 85t-3.5 137.5q0 96 12.5 150t45.5 97q63 86 188 86t189 -86q31 -43 43 -97t12 -150q0 -86 -3 -137.5t-13.5 -85t-29.5 -56t-52 -47.5q39 -16 61.5 -35.5t34.5 -59.5t15 -109.5 t3 -186.5q0 -356 -260 -356q-61 0 -113.5 23.5t-84.5 64.5q-35 45 -48.5 104t-13.5 158zM274 276q0 -70 16.5 -95t57.5 -25t57.5 27.5t16.5 92.5v230q0 66 -16.5 93.5t-57.5 27.5t-57.5 -26t-16.5 -95v-230zM281 932q0 -59 15 -85t52 -26q35 0 50.5 25.5t15.5 85.5v180 q0 59 -15.5 85t-50.5 26q-37 0 -52 -26t-15 -85v-180z" />
<glyph unicode="9" d="M82 852v229q0 143 71.5 224t198.5 81q121 0 190.5 -77.5t69.5 -212.5v-834q0 -129 -69.5 -205.5t-186.5 -76.5q-80 0 -141 38.5t-90 110.5q-14 35 -20.5 85t-6.5 134h181q-2 -20 -2.5 -31.5t-0.5 -23.5q0 -72 17.5 -103.5t56.5 -31.5t60 35q8 12 10 32.5t2 61.5v303 q-41 -43 -75 -61.5t-75 -18.5q-88 0 -139 72q-16 20 -25.5 43.5t-15.5 54.5t-8 72t-2 100zM272 815q0 -86 13.5 -115.5t48.5 -29.5q49 0 88 49v407q0 35 -20.5 58.5t-53.5 23.5q-76 0 -76 -98v-295z" />
<glyph unicode=":" horiz-adv-x="382" d="M96 0v205h191v-205h-191zM96 719v205h191v-205h-191z" />
<glyph unicode=";" horiz-adv-x="382" d="M96 0v205h191v-205l-86 -244h-105l70 244h-70zM96 719v205h191v-205h-191z" />
<glyph unicode="&#x3c;" horiz-adv-x="1024" d="M68 604v166l886 428v-190l-682 -322l682 -319v-191z" />
<glyph unicode="=" d="M76 504v135h545v-135h-545zM76 776v135h545v-135h-545z" />
<glyph unicode="&#x3e;" horiz-adv-x="1024" d="M70 176v191l682 321l-682 320v190l886 -428v-166z" />
<glyph unicode="?" horiz-adv-x="665" d="M82 1135q61 246 266 245q109 0 174.5 -65.5t65.5 -173.5q0 -31 -2 -51.5t-14.5 -51t-37 -80t-69.5 -137.5q-14 -29 -24.5 -55.5t-16.5 -59t-8 -73.5t-2 -96v-162h-158v217q0 70 2 110.5t11.5 80.5t28.5 89.5t54 133.5q16 37 25.5 60.5t14.5 38.5t7 26.5t2 21.5 q0 23 -18 40t-45 17q-29 0 -51.5 -29.5t-44.5 -99.5zM238 0v205h190v-205h-190z" />
<glyph unicode="@" horiz-adv-x="827" d="M109 332v715q0 166 80.5 252.5t234.5 86.5q147 0 230 -87t83 -242v-695h-106l-19 58q-31 -43 -58.5 -60.5t-64.5 -17.5q-70 0 -102.5 41t-32.5 131v385q0 88 38 137t106 49q31 0 52 -12t48 -41v43q0 86 -48 136.5t-126 50.5t-131 -60q-14 -16 -23.5 -32.5t-14.5 -38 t-7 -50t-2 -67.5v-637q0 -68 7 -109t26 -73q23 -41 63.5 -66t89.5 -25q92 0 166 91l84 -95q-94 -121 -250 -120q-66 0 -128 22.5t-101 60.5q-43 43 -68.5 115t-25.5 154zM496 555q0 -43 11 -60.5t40 -17.5t40 17.5t11 60.5v311q0 43 -11.5 60.5t-39.5 17.5q-29 0 -40 -17.5 t-11 -60.5v-311z" />
<glyph unicode="A" horiz-adv-x="720" d="M55 0l187 1366h245l179 -1366h-187l-35 307h-172l-32 -307h-185zM293 485h131l-66 633z" />
<glyph unicode="B" horiz-adv-x="718" d="M82 0v1366h172q61 0 103 -3t73 -12.5t55.5 -25.5t49.5 -41q45 -45 64 -106.5t19 -153.5q0 -66 -6 -113t-20 -82.5t-38 -61.5t-58 -48q41 -16 69.5 -40t46 -60.5t24.5 -90t7 -127.5q0 -123 -15.5 -189.5t-56.5 -113.5q-45 -53 -114.5 -75.5t-184.5 -22.5h-190zM272 178h19 q49 0 80.5 9.5t50 34t25 67.5t6.5 110q0 68 -6.5 111t-25 67.5t-50 34t-80.5 9.5h-19v-443zM272 799h27q100 0 121 65q8 23 10 54.5t2 107.5q0 92 -28.5 127t-104.5 35h-27v-389z" />
<glyph unicode="C" d="M80 307v752q0 327 266 327h2q276 0 277 -356v-46t-4 -62h-191q4 35 4 52v42q0 113 -17.5 152.5t-68.5 39.5q-47 0 -62.5 -29.5t-15.5 -119.5v-752q0 -90 15.5 -119.5t62.5 -29.5q49 0 67.5 37.5t18.5 144.5q0 35 -1 64.5t-3 80.5h191q2 -55 3 -84.5t1 -58.5 q0 -362 -277 -362q-268 0 -268 327z" />
<glyph unicode="D" horiz-adv-x="702" d="M82 0v1366h203q100 0 154.5 -16.5t97.5 -59.5q86 -84 86 -239v-736q0 -158 -86 -239q-43 -43 -97.5 -59.5t-154.5 -16.5h-203zM272 178h25q78 0 106.5 29t28.5 108v736q0 78 -28.5 107.5t-106.5 29.5h-25v-1010z" />
<glyph unicode="E" horiz-adv-x="602" d="M82 0v1366h461v-178h-271v-383h189v-178h-189v-449h287v-178h-477z" />
<glyph unicode="F" horiz-adv-x="569" d="M82 0v1366h461v-178h-271v-383h189v-178h-189v-627h-190z" />
<glyph unicode="G" horiz-adv-x="702" d="M80 336v723q0 327 266 327h2q276 0 277 -356v-45t-4 -63h-191q4 33 4 51v41q0 115 -17.5 154.5t-68.5 39.5q-47 0 -62.5 -29.5t-15.5 -119.5v-723v-53.5t1 -29.5t2 -18.5t3 -17.5q6 -29 26 -45t44 -16q29 0 50.5 18.5t27.5 46.5q4 20 5 39t1 76v196h-84v162h275v-694 h-103l-29 94q-77 -114 -176 -114h-2q-59 0 -111.5 33.5t-80.5 86.5q-23 43 -31 93.5t-8 142.5z" />
<glyph unicode="H" horiz-adv-x="700" d="M82 0v1366h190v-561h156v561h190v-1366h-190v627h-156v-627h-190z" />
<glyph unicode="I" horiz-adv-x="354" d="M82 0v1366h190v-1366h-190z" />
<glyph unicode="J" horiz-adv-x="413" d="M20 0v188h21q57 0 78.5 27t21.5 92v1059h191v-1038q0 -49 -1 -82t-3 -56.5t-7.5 -40t-11.5 -32.5q-16 -35 -37.5 -57.5t-54.5 -36t-80 -18.5t-117 -5z" />
<glyph unicode="K" horiz-adv-x="735" d="M82 0v1366h190v-514l187 514h194l-172 -461l213 -905h-198l-142 645l-82 -223v-422h-190z" />
<glyph unicode="L" horiz-adv-x="575" d="M82 0v1366h190v-1188h271v-178h-461z" />
<glyph unicode="M" horiz-adv-x="888" d="M82 0v1366h225l135 -680l136 680h229v-1366h-164v965l-160 -965h-82l-159 965v-965h-160z" />
<glyph unicode="N" horiz-adv-x="770" d="M82 0v1366h164l252 -805v805h190v-1366h-190l-226 717v-717h-190z" />
<glyph unicode="O" horiz-adv-x="698" d="M80 348v672q0 61 1 100t6 66.5t13.5 47t22.5 42.5q35 51 95.5 80.5t131.5 29.5q72 0 132.5 -29.5t95.5 -80.5q14 -23 22 -42.5t12 -47t6.5 -66.5t2.5 -100v-672q0 -61 -2.5 -100t-6.5 -66.5t-12 -47t-22 -42.5q-35 -53 -95.5 -82.5t-132.5 -29.5t-132 29.5t-95 82.5 q-14 23 -22.5 42.5t-13.5 47t-6 66.5t-1 100zM270 268q0 -59 18.5 -84.5t61.5 -25.5q41 0 60.5 25.5t19.5 84.5v830q0 59 -18.5 84.5t-61.5 25.5q-41 0 -60.5 -25.5t-19.5 -84.5v-830z" />
<glyph unicode="P" horiz-adv-x="673" d="M82 0v1366h180q68 0 116 -5t83 -18.5t58.5 -37t45.5 -58.5q14 -27 24.5 -53.5t16.5 -58t9 -72.5t3 -98q0 -72 -3 -121t-11 -86t-22.5 -63.5t-34.5 -51.5q-76 -88 -248 -88h-27v-555h-190zM272 731h27q102 0 123 66q4 16 8 63t4 101q0 51 -4 98t-8 63q-20 66 -123 66h-27 v-457z" />
<glyph unicode="Q" horiz-adv-x="698" d="M80 348v672q0 61 1 100t6 66.5t13.5 47t22.5 42.5q35 51 95.5 80.5t131.5 29.5q72 0 132.5 -29.5t95.5 -80.5q14 -23 22 -42.5t12 -47t6.5 -66.5t2.5 -100v-672q0 -53 -1.5 -86t-3.5 -56.5t-6 -39.5t-12 -35q10 -14 23.5 -23.5t35.5 -17.5v-188h-18q-55 0 -104.5 24.5 t-79.5 71.5q-53 -18 -105 -18q-72 0 -132 29.5t-95 82.5q-14 23 -22.5 42.5t-13.5 47t-6 66.5t-1 100zM270 268q0 -59 18.5 -84.5t61.5 -25.5q41 0 60.5 25.5t19.5 84.5v830q0 59 -18.5 84.5t-61.5 25.5q-41 0 -60.5 -25.5t-19.5 -84.5v-830z" />
<glyph unicode="R" horiz-adv-x="712" d="M82 0v1366h186q63 0 110.5 -6t82.5 -20.5t59.5 -39t44.5 -59.5q29 -49 41 -109.5t12 -146.5q0 -66 -4 -111t-14 -81.5t-28.5 -69.5t-49.5 -70l133 -653h-204l-111 588q-25 -4 -35 -5t-33 -3v-580h-190zM272 772h27q100 0 121 64q4 12 6 24t4 32.5t2 51.5v78 q0 96 -28.5 131t-104.5 35h-27v-416z" />
<glyph unicode="S" horiz-adv-x="663" d="M51 322v36t2 37l189 8v-55q0 -109 20.5 -149.5t77.5 -40.5q86 0 86 135q0 33 -5 61.5t-18.5 59t-36 65.5t-57.5 82l-94 139q-45 66 -74.5 118t-48 98.5t-26 88.5t-7.5 87q0 135 76 214.5t205 79.5q98 0 163.5 -52t86.5 -146q4 -18 6 -31.5t3 -30t1 -41v-67.5l-186 -19 q0 53 -1 77t-5 46q-10 86 -80 86q-80 0 -80 -127q0 -31 3 -54t16.5 -52t41 -72t74.5 -115l96 -139q66 -98 101.5 -197.5t35.5 -187.5q0 -137 -71.5 -210.5t-204.5 -73.5q-152 0 -229 104q-35 47 -47.5 97t-12.5 141z" />
<glyph unicode="T" horiz-adv-x="583" d="M14 1188v178h555v-178h-186v-1188h-190v1188h-179z" />
<glyph unicode="U" horiz-adv-x="704" d="M82 346v1020h190v-1098q0 -59 19.5 -84.5t60.5 -25.5q43 0 61.5 25.5t18.5 84.5v1098h191v-1020q0 -61 -2.5 -100t-6.5 -66.5t-12 -47t-22 -42.5q-35 -51 -95.5 -80.5t-132.5 -29.5t-132 29.5t-95 80.5q-14 23 -22.5 42.5t-13.5 47t-6 66.5t-1 100z" />
<glyph unicode="V" horiz-adv-x="647" d="M27 1366h188l115 -831l108 831h183l-199 -1366h-189z" />
<glyph unicode="W" horiz-adv-x="956" d="M41 1366h174l96 -776l92 776h150l92 -805l96 805h174l-174 -1366h-166l-100 735l-90 -735h-170z" />
<glyph unicode="X" horiz-adv-x="716" d="M41 0l205 715l-189 651h193l112 -422l111 422h184l-188 -651l207 -715h-207l-111 453l-112 -453h-205z" />
<glyph unicode="Y" horiz-adv-x="669" d="M27 1366h206l105 -504l104 504h201l-213 -799v-567h-190v567z" />
<glyph unicode="Z" horiz-adv-x="641" d="M55 0v178l340 1010h-301v178h492v-178l-340 -1010h340v-178h-531z" />
<glyph unicode="[" horiz-adv-x="559" d="M147 -221v1587h279v-178h-111v-1231h111v-178h-279z" />
<glyph unicode="\" horiz-adv-x="636" d="M47 1366h129l426 -1503h-121z" />
<glyph unicode="]" horiz-adv-x="559" d="M133 -43h111v1231h-111v178h279v-1587h-279v178z" />
<glyph unicode="^" horiz-adv-x="1024" d="M57 756l346 614h218l346 -614h-179l-276 483l-276 -483h-179z" />
<glyph unicode="_" horiz-adv-x="1024" d="M0 -139h1024v-123h-1024v123z" />
<glyph unicode="`" horiz-adv-x="1024" d="M311 1337h199l92 -153h-143z" />
<glyph unicode="a" horiz-adv-x="626" d="M61 244q0 82 20.5 142t65.5 112q16 18 27.5 28.5t29 23.5t47.5 33.5t83 55.5q10 4 17 10t18 13v114q0 59 -10.5 75.5t-45.5 16.5q-20 0 -32.5 -6t-20.5 -22.5t-13 -46t-7 -74.5h-172q8 86 18 131t33 80q59 102 196 102q113 0 172.5 -62.5t59.5 -181.5v-624q0 -33 1 -55.5 t2 -40t5 -34t10 -34.5h-184q-4 16 -7 37.5t-5 44.5q-63 -96 -152 -96q-156 0 -156 258zM240 260q0 -108 54 -108h1q39 0 74 53v317q-72 -59 -100.5 -118.5t-28.5 -143.5z" />
<glyph unicode="b" horiz-adv-x="632" d="M76 0v1366h178v-444q51 59 89 84.5t79 25.5q33 0 61.5 -16.5t44.5 -42.5q16 -27 22.5 -65t6.5 -115v-568q0 -80 -6 -116.5t-23 -63.5q-16 -27 -45.5 -43t-60.5 -16q-41 0 -79 24.5t-89 85.5v-96h-178zM254 190q29 -23 45 -31.5t33 -8.5q47 0 47 75v568q0 75 -44 75h-1 q-18 0 -34.5 -9t-45.5 -32v-637z" />
<glyph unicode="c" horiz-adv-x="612" d="M72 272v473q0 72 12 118t43 83q68 86 184 86q121 0 185.5 -70.5t64.5 -203.5v-16.5v-15.5t-1 -23.5t-3 -40.5h-176v40v46q0 68 -14.5 94t-53.5 26q-35 0 -49 -24.5t-14 -79.5v-510q0 -55 14.5 -79.5t48.5 -24.5q39 0 53.5 26.5t14.5 93.5v45v58h176q2 -31 3 -47.5 t1 -27.5v-18.5v-15.5q0 -135 -63.5 -206.5t-186.5 -71.5q-117 0 -184 86q-31 37 -43 83t-12 117z" />
<glyph unicode="d" horiz-adv-x="632" d="M76 225v568q0 78 6 115.5t22 64.5t45 43t62 16q41 0 79 -25.5t89 -84.5v444h178v-1366h-174l-4 96q-51 -61 -89 -85.5t-79 -24.5q-31 0 -60.5 16t-46.5 43q-16 27 -22 63.5t-6 116.5zM254 225q0 -75 44 -75h1q18 0 34.5 9t45.5 31v637q-29 23 -45.5 32t-32.5 9 q-47 0 -47 -75v-568z" />
<glyph unicode="e" horiz-adv-x="632" d="M72 272v476q0 284 245 284h2q111 0 174.5 -67.5t63.5 -186.5v-299h-307v-225q0 -55 14.5 -79.5t48.5 -24.5q35 0 51.5 27.5t16.5 92.5v45v41h176q0 -25 1 -39t1 -23v-15.5v-14.5q0 -135 -63.5 -206.5t-184.5 -71.5q-117 0 -184 86q-31 39 -43 84t-12 116zM250 621h129 v172q0 75 -62 75h-2q-66 0 -65 -75v-172z" />
<glyph unicode="f" horiz-adv-x="382" d="M23 854v164h79v119q0 63 9.5 100t31.5 66q54 67 155 67h3q12 0 30.5 -1t39.5 -3v-164q-8 2 -16.5 2h-12.5q-61 0 -61 -67v-119h90v-164h-90v-854h-179v854h-79z" />
<glyph unicode="g" horiz-adv-x="624" d="M33 -178q0 100 151 178q-68 23 -94.5 49.5t-26.5 71.5q0 96 121 166q-53 41 -76.5 92t-23.5 127v295q0 104 59.5 167.5t157.5 63.5q61 0 105.5 -22.5t78.5 -71.5q27 47 56.5 68.5t76.5 25.5v-168q-27 8 -43 8q-14 0 -25 -4t-28 -14v-70v-249q0 -131 -55 -203t-156 -72 h-21t-26 2q-51 -8 -51 -49q0 -47 61 -59q10 -2 17.5 -4.5t21 -4.5t38 -5t69.5 -9q98 -12 153.5 -73.5t55.5 -157.5q0 -119 -86 -190.5t-228 -71.5q-133 0 -207.5 49t-74.5 135zM209 -121q0 -43 31.5 -67.5t89.5 -24.5q61 0 97 27.5t36 74.5t-32 66t-132 29 q-53 -27 -71.5 -49.5t-18.5 -55.5zM240 500q0 -78 63 -78t64 78v295q0 75 -62 75h-2q-63 0 -63 -75v-295z" />
<glyph unicode="h" horiz-adv-x="634" d="M76 0v1366h178v-444q51 61 89 85.5t79 24.5q31 0 60.5 -16.5t45.5 -42.5q16 -27 22.5 -64t6.5 -116v-793h-178v793q0 75 -46 75h-1q-16 0 -32.5 -9t-45.5 -32v-827h-178z" />
<glyph unicode="i" horiz-adv-x="329" d="M76 0v1018h178v-1018h-178zM76 1184v182h178v-182h-178z" />
<glyph unicode="j" horiz-adv-x="335" d="M-31 -152q12 -4 19.5 -5t17.5 -1q41 0 57 27q6 8 10.5 17.5t5.5 23.5t2 35.5t1 54.5v1018h178v-1018q0 -72 -3 -120t-10 -80.5t-21.5 -53t-35.5 -39.5q-49 -43 -137 -43q-23 0 -40 3t-44 11v170zM82 1184v182h178v-182h-178z" />
<glyph unicode="k" horiz-adv-x="626" d="M76 0v1366h178v-741l135 393h168l-131 -326l168 -692h-176l-107 494l-57 -142v-352h-178z" />
<glyph unicode="l" horiz-adv-x="329" d="M76 0v1366h178v-1366h-178z" />
<glyph unicode="m" horiz-adv-x="940" d="M76 0v1018h174l4 -96q53 63 91 86.5t85 23.5t74.5 -25.5t50.5 -84.5q37 59 76 84.5t88 25.5q35 0 66.5 -15.5t48.5 -43.5q16 -27 22 -64t6 -116v-793h-178v793q0 75 -48 75h-1q-16 0 -32.5 -9t-43.5 -32v-827h-178v793q0 75 -46 75h-1q-16 0 -33.5 -9t-46.5 -32v-827 h-178z" />
<glyph unicode="n" horiz-adv-x="634" d="M76 0v1018h174l4 -88q55 59 91 80.5t77 21.5q31 0 60.5 -16.5t45.5 -40.5q16 -27 22.5 -62.5t6.5 -113.5v-799h-178v793q0 75 -46 75h-1q-16 0 -32.5 -9t-45.5 -32v-827h-178z" />
<glyph unicode="o" horiz-adv-x="630" d="M72 272v473q0 287 243 287q242 0 242 -287v-473q0 -286 -240 -286h-2q-244 0 -243 286zM250 244q0 -94 65 -94q63 0 64 94v530q0 94 -64 94q-66 0 -65 -94v-530z" />
<glyph unicode="p" horiz-adv-x="632" d="M76 -348v1366h174l4 -96q51 61 89 85.5t79 24.5q31 0 60.5 -16.5t45.5 -42.5q16 -27 22.5 -64t6.5 -116v-568q0 -78 -6 -115.5t-23 -64.5q-16 -27 -44.5 -43t-61.5 -16q-41 0 -79 25.5t-89 84.5v-444h-178zM254 190q29 -23 45 -31.5t33 -8.5q47 0 47 75v568q0 75 -44 75 h-1q-18 0 -34.5 -9t-45.5 -32v-637z" />
<glyph unicode="q" horiz-adv-x="632" d="M76 225v568q0 80 6 116.5t22 63.5t46 43t61 16q41 0 79 -24.5t89 -85.5l4 96h174v-1366h-178v444q-51 -59 -89 -84.5t-79 -25.5q-33 0 -61.5 16t-45.5 43q-16 27 -22 64.5t-6 115.5zM254 225q0 -75 44 -75h1q18 0 34.5 9t45.5 31v637q-29 23 -45.5 32t-32.5 9 q-47 0 -47 -75v-568z" />
<glyph unicode="r" horiz-adv-x="436" d="M76 0v1018h178v-127q67 141 171 141h9v-198q-29 4 -41 6t-24 2q-115 0 -115 -152v-690h-178z" />
<glyph unicode="s" horiz-adv-x="561" d="M39 233q0 14 2 25l172 12q-2 -10 -2 -17v-13q0 -90 68 -90q31 0 49 23.5t18 64.5q0 25 -4 44t-15.5 39.5t-32 45t-50.5 57.5l-70 72q-117 123 -117 278q0 258 246 258q72 0 124 -31.5t75 -91.5q10 -29 14 -57.5t4 -77.5l-170 -12v12q0 94 -59 94t-60 -96q0 -47 16.5 -80 t57.5 -78l72 -73q82 -86 114.5 -150.5t32.5 -140.5q0 -121 -67.5 -192.5t-177.5 -71.5q-111 0 -175.5 66.5t-64.5 180.5z" />
<glyph unicode="t" horiz-adv-x="436" d="M31 854v164h86v278h178v-278h125v-164h-125v-598q0 -94 84 -94h18.5t22.5 2v-164q-39 -8 -59.5 -11t-43.5 -3q-201 0 -200 209v659h-86z" />
<glyph unicode="u" horiz-adv-x="634" d="M76 219v799h178v-793q0 -75 46 -75h1q16 0 32.5 9t45.5 31v828h178v-1018h-164l-14 88q-55 -59 -91 -80.5t-77 -21.5q-31 0 -60.5 16t-46.5 41q-16 27 -22 62.5t-6 113.5z" />
<glyph unicode="v" horiz-adv-x="577" d="M35 1018h170l84 -588l84 588h172l-172 -1018h-168z" />
<glyph unicode="w" horiz-adv-x="854" d="M35 1018h160l81 -545l86 545h132l90 -555l80 555h155l-155 -1018h-138l-96 584l-100 -584h-135z" />
<glyph unicode="x" horiz-adv-x="563" d="M27 0l157 537l-145 481h168l72 -291l69 291h168l-147 -481l168 -537h-168l-90 326l-84 -326h-168z" />
<glyph unicode="y" horiz-adv-x="581" d="M35 1018h174l82 -598l86 598h172l-187 -1157q-35 -223 -258 -223q-23 0 -55 6v170h19q68 0 97.5 34.5t29.5 112.5v42t-2.5 35.5t-6.5 43t-10 65.5z" />
<glyph unicode="z" horiz-adv-x="559" d="M55 0v152l262 702h-231v164h418v-152l-254 -702h254v-164h-449z" />
<glyph unicode="{" horiz-adv-x="641" d="M84 502v147q63 18 90 60.5t27 126.5v251q0 152 69 216q20 20 41 32.5t53.5 19.5t81 9t125.5 2v-172q-59 0 -97 -9t-59.5 -30.5t-30.5 -56.5t-9 -88v-203q0 -96 -24.5 -148.5t-88.5 -87.5q63 -35 88 -88t25 -151v-197q0 -57 8 -94t30.5 -58.5t60.5 -30.5t97 -9v-164 q-80 0 -130 3t-81.5 10t-52 19.5t-41.5 34.5q-35 37 -50 92.5t-15 143.5v225q0 90 -25.5 133t-91.5 62z" />
<glyph unicode="|" horiz-adv-x="1024" d="M416 -342v1708h192v-1708h-192z" />
<glyph unicode="}" horiz-adv-x="641" d="M70 -57q57 0 95 9t60.5 30.5t30.5 58.5t8 94v197q0 98 24.5 151.5t88.5 87.5q-63 35 -88 87.5t-25 148.5v203q0 53 -9 88t-30.5 56.5t-59.5 30.5t-95 9v172q76 0 124 -2t80.5 -9t53 -19.5t41.5 -32.5q70 -63 69 -216v-251q0 -84 27 -126t92 -61v-147q-66 -18 -92.5 -61.5 t-26.5 -133.5v-225q0 -88 -15 -143.5t-50 -92.5q-20 -23 -41 -35t-52.5 -19t-80.5 -10t-129 -3v164z" />
<glyph unicode="~" horiz-adv-x="1366" d="M193 1255q106 242 282 242q43 0 95.5 -17.5t142.5 -60.5q43 -20 70.5 -32.5t47 -19.5t34 -9t30.5 -2q53 0 95 33.5t85 111.5l101 -80q-53 -123 -127 -180t-175 -57q-20 0 -37.5 3t-43 12t-63.5 26.5t-97 46.5q-57 29 -96 40t-72 11q-47 0 -88 -35t-84 -112z" />
<glyph unicode="&#xa1;" horiz-adv-x="458" d="M123 -348l43 983h121l49 -983h-213zM133 813v205h191v-205h-191z" />
<glyph unicode="&#xa2;" d="M111 455v471q0 233 174 278v162h139v-164q92 -27 133 -90t41 -176v-12v-15.5t-1 -25t-1 -41.5h-176v41v45q0 68 -14.5 94.5t-53.5 26.5q-35 0 -49 -25t-14 -80v-510q0 -55 14 -79.5t49 -24.5q39 0 53.5 26.5t14.5 94.5v47v57h176q0 -33 1 -50.5t1 -27.5v-16v-12 q0 -117 -42 -182.5t-132 -90.5v-176h-139v174q-53 12 -92 49q-45 41 -63.5 93.5t-18.5 138.5z" />
<glyph unicode="&#xa3;" d="M57 143q76 70 110 157t34 216q0 33 -2 59.5t-6 59.5h-115v164h82q-4 14 -7 25.5t-10 29.5q-18 63 -29.5 101t-17.5 63.5t-7 44t-1 41.5q0 59 21.5 111.5t58.5 90t88 59t111 21.5q119 0 191.5 -80.5t72.5 -215.5q0 -18 -1 -33t-5 -39h-174q2 14 2 28.5v22.5q0 139 -88 139 q-90 0 -91 -104q0 -23 1 -38t8.5 -40t21.5 -64.5t39 -111.5q4 -14 8 -24.5t8 -26.5h170v-164h-141q4 -20 4 -37.5v-42.5q0 -117 -24.5 -212t-77.5 -187q29 8 44 11t32 3q6 0 15 -1t60 -7q12 -2 23.5 -3t23.5 -1q35 0 67 7t73 25l47 -159q-31 -16 -53.5 -26.5t-41 -15.5 t-39 -7t-46.5 -2q-39 0 -71 4t-85 14q-29 4 -47.5 7t-30.5 3q-25 0 -52.5 -6t-88.5 -22z" />
<glyph unicode="&#xa4;" horiz-adv-x="823" d="M78 911l104 107l82 -84q41 23 75 33t73 10q78 0 153 -47l80 80l96 -95l-86 -86q20 -37 28.5 -71.5t8.5 -75.5t-7 -70.5t-28 -68.5l88 -88l-106 -105l-82 82q-35 -23 -69.5 -33t-75.5 -10q-80 0 -152 45l-78 -78l-96 95l84 84q-23 37 -31 71.5t-8 75.5q0 39 8 70.5 t25 72.5zM262 682q0 -68 44 -116t106 -48q59 0 104 48t45 114q0 70 -43.5 117t-109.5 47q-57 0 -101.5 -48t-44.5 -114z" />
<glyph unicode="&#xa5;" d="M55 1366h195l100 -498l99 498h192l-160 -594h107v-164h-150v-608h-182v608h-147v164h104z" />
<glyph unicode="&#xa6;" horiz-adv-x="1024" d="M416 313h192v-655h-192v655zM416 674v692h192v-692h-192z" />
<glyph unicode="&#xa7;" horiz-adv-x="724" d="M82 750q0 139 139 206l-18 23q-37 41 -57.5 93t-20.5 99q0 98 67.5 156.5t178.5 58.5t176 -67.5t65 -181.5v-20.5t-2 -37.5h-180v43q0 102 -63 103q-25 0 -40.5 -15.5t-15.5 -40.5q0 -18 7.5 -33.5t31.5 -45.5l232 -308q61 -80 61 -178q0 -156 -129 -213l21 -24 q29 -37 44 -83t15 -89q0 -96 -68.5 -155.5t-179.5 -59.5q-119 0 -186.5 67.5t-67.5 185.5v16.5t2 22.5h185q-2 -12 -2.5 -20t-0.5 -14q0 -96 68 -97q27 0 42 17.5t15 46.5t-28 69l-199 261q-51 66 -71.5 114.5t-20.5 100.5zM270 748q0 -33 25 -68l115 -154q51 25 51 82 q0 33 -35 80l-100 131q-55 -29 -56 -71z" />
<glyph unicode="&#xa8;" horiz-adv-x="1024" d="M311 1184v182h158v-182h-158zM557 1184v182h158v-182h-158z" />
<glyph unicode="&#xa9;" horiz-adv-x="1597" d="M92 682q0 150 55.5 279t152.5 224t227 150.5t280 55.5q143 0 269 -56.5t221.5 -153t150.5 -225.5t55 -274t-55 -274t-150.5 -225.5t-224.5 -152t-274 -55.5t-274.5 55.5t-225.5 152t-151.5 225.5t-55.5 274zM203 684q0 -125 47 -235.5t128 -192.5t189.5 -130t231.5 -48 t231.5 47t188 129t127 192.5t47.5 235.5q0 127 -46.5 237.5t-128 192.5t-191 129t-234.5 47q-121 0 -228.5 -48t-187.5 -130t-127 -192.5t-47 -233.5zM625 463v444q0 201 172 201q174 0 174 -219v-28.5t-2 -41.5h-129v60q0 66 -8.5 88t-36.5 22q-23 0 -31 -16.5t-8 -65.5 v-444q0 -49 8 -64.5t31 -15.5q29 0 37 20.5t8 85.5v86h129q2 -37 2 -55v-33q0 -223 -174 -223q-172 0 -172 199z" />
<glyph unicode="&#xaa;" horiz-adv-x="423" d="M47 696q0 98 55 156l17.5 17.5t17.5 14.5t29.5 19t54.5 33l17 12v64q0 31 -4.5 39t-22.5 8q-20 0 -26.5 -16.5t-10.5 -71.5h-123q4 57 11.5 84.5t21.5 50.5q41 63 129 63q72 0 112 -39.5t40 -111.5v-367q0 -41 2 -59.5t12 -44.5h-133l-4 28l-2 7q-25 -25 -44.5 -34 t-43.5 -9q-104 0 -105 157zM174 705q0 -55 27 -56q18 0 37 27v170q-35 -29 -49.5 -61.5t-14.5 -79.5z" />
<glyph unicode="&#xab;" horiz-adv-x="571" d="M82 365v294l156 154v-231l-54 -70l54 -70v-231zM334 365v294l155 166v-243l-53 -70l53 -70v-243z" />
<glyph unicode="&#xac;" horiz-adv-x="1024" d="M68 406v169h886v-575h-188v406h-698z" />
<glyph unicode="&#xad;" horiz-adv-x="256" d="M0 428v160h256v-160h-256z" />
<glyph unicode="&#xae;" horiz-adv-x="1570" d="M80 682q0 150 55 279t152.5 224t227.5 150.5t280 55.5q143 0 269 -56.5t221 -153t150.5 -225.5t55.5 -274t-55.5 -274t-150.5 -225.5t-224 -152t-275 -55.5q-145 0 -274 55.5t-225.5 152t-151.5 225.5t-55 274zM190 684q0 -125 47.5 -235.5t128 -192.5t189.5 -130 t231 -48q123 0 231.5 47t188.5 129t127 192.5t47 235.5q0 127 -46 237.5t-128 192.5t-191.5 129t-234.5 47q-121 0 -228.5 -48t-187 -130t-127 -192.5t-47.5 -233.5zM618 274v820h121q80 0 121 -16.5t68 -61.5q16 -29 24.5 -65t8.5 -89q0 -39 -2.5 -66.5t-8.5 -49t-17 -41 t-30 -41.5l82 -390h-139l-68 347q-10 -4 -14 -4.5t-14 -0.5v-342h-132zM750 743h10q25 0 40 4.5t22 18.5t9.5 42t2.5 75q0 55 -15.5 73.5t-58.5 18.5h-10v-232z" />
<glyph unicode="&#xaf;" horiz-adv-x="1024" d="M344 1176v137h336v-137h-336z" />
<glyph unicode="&#xb0;" horiz-adv-x="753" d="M96 1083q0 61 21.5 115.5t60.5 94.5t91.5 63.5t111.5 23.5q57 0 107.5 -23.5t88 -63.5t59 -93t21.5 -115q0 -61 -21.5 -115.5t-60 -94t-90 -62t-108.5 -22.5q-59 0 -109.5 22.5t-89.5 62t-60.5 93t-21.5 114.5zM227 1085q0 -68 44 -116.5t106 -48.5q31 0 57.5 13t47 35.5 t32.5 51.5t12 61q0 70 -43.5 118t-109.5 48q-57 0 -101.5 -48t-44.5 -114z" />
<glyph unicode="&#xb1;" d="M76 139v135h545v-135h-545zM76 596v135h196v223h150v-223h199v-135h-199v-217h-150v217h-196z" />
<glyph unicode="&#xb2;" horiz-adv-x="471" d="M63 545v102q12 23 21.5 38t21 36.5t30 57.5t50.5 102q27 55 45.5 95t28.5 71.5t14.5 61.5t4.5 62q0 51 -8.5 71t-28.5 20q-27 0 -35 -28t-8 -116h-127v41q0 219 176 219q78 0 119 -47t41 -133q0 -80 -28 -174t-83 -199q-4 -8 -27.5 -48t-66.5 -113h196v-119h-336z" />
<glyph unicode="&#xb3;" horiz-adv-x="471" d="M66 735v22.5t2 33.5h131q-2 -14 -2 -21.5v-15.5q0 -55 9 -78t34 -23q33 0 32 39l-2 35v111q0 33 -1 40t-11 19q-23 23 -55 23h-11.5t-15.5 -2v116q51 2 72.5 19.5t21.5 60.5v107q0 39 -28 39q-25 0 -32 -15.5t-7 -64.5v-17.5t2 -23.5h-127v35q0 205 158 204q78 0 124 -53 q23 -27 30 -60.5t7 -93.5q0 -49 -2 -78.5t-7 -50t-16.5 -33t-29.5 -26.5q23 -10 35 -20.5t18 -35t8.5 -66.5t2.5 -116q0 -111 -42 -160.5t-133 -49.5q-166 0 -165 200z" />
<glyph unicode="&#xb4;" horiz-adv-x="1024" d="M408 1184l94 153h196l-147 -153h-143z" />
<glyph unicode="&#xb5;" horiz-adv-x="634" d="M76 -348v1366h178v-754q2 -43 2 -55t2 -27q10 -51 55 -51q43 0 66 59v828h178v-1018h-164l-12 74q-20 -88 -74 -88q-45 0 -53 49v-383h-178z" />
<glyph unicode="&#xb6;" horiz-adv-x="856" d="M82 1008q0 78 25.5 143.5t71.5 113.5t109.5 74.5t139.5 26.5h352v-61h-82v-1510h-98v1510h-113v-1510h-100v860q-66 2 -121 31t-96 76t-64.5 110.5t-23.5 135.5z" />
<glyph unicode="&#xb7;" horiz-adv-x="382" d="M96 424v205h191v-205h-191z" />
<glyph unicode="&#xb8;" horiz-adv-x="1024" d="M432 -94h160v-139l-45 -115h-96l34 115h-53v139z" />
<glyph unicode="&#xb9;" horiz-adv-x="471" d="M117 1196v90q41 23 61.5 37t48.5 43h84v-819h-133v649h-61z" />
<glyph unicode="&#xba;" horiz-adv-x="425" d="M55 715v278q0 176 158 176q160 0 160 -176v-278q0 -176 -158 -176q-160 0 -160 176zM182 698q0 -49 33 -49q31 0 31 49v312q0 49 -31 49q-33 0 -33 -49v-312z" />
<glyph unicode="&#xbb;" horiz-adv-x="571" d="M82 199v243l53 70l-53 70v243l156 -166v-294zM334 211v231l53 70l-53 70v231l155 -154v-294z" />
<glyph unicode="&#xbc;" horiz-adv-x="1116" d="M117 1196v90q41 23 61.5 37t48.5 43h84v-819h-133v649h-61zM315 -68l385 1502h103l-393 -1502h-95zM684 180v113l197 526h131v-520h47v-119h-47v-180h-133v180h-195zM784 291h99v309z" />
<glyph unicode="&#xbd;" horiz-adv-x="1116" d="M117 1196v90q41 23 61.5 37t48.5 43h84v-819h-133v649h-61zM315 -68l385 1502h103l-393 -1502h-95zM709 0v102q12 20 20 36t19.5 37.5t30 58t52.5 102.5q27 53 45.5 93t28.5 71.5t14.5 61.5t4.5 63q0 51 -8.5 70.5t-28.5 19.5q-27 0 -35 -28t-8 -116h-127v41 q0 219 176 219q78 0 119 -47t41 -133q0 -80 -28 -173t-83 -197q-2 -4 -25.5 -44t-68.5 -118h196v-119h-335z" />
<glyph unicode="&#xbe;" horiz-adv-x="1116" d="M66 735v22.5t2 33.5h131q-2 -14 -2 -21.5v-15.5q0 -57 9 -79t34 -22q20 0 26 14.5t6 59.5v111q0 82 -69 82h-11.5t-15.5 -2v116q96 2 96 80v107q0 39 -30 39q-25 0 -32 -15.5t-7 -64.5v-17.5t2 -23.5h-127v35q0 205 160 204q80 0 122 -53q23 -29 30 -60.5t7 -93.5 q0 -49 -2 -78.5t-7 -50t-16.5 -33t-29.5 -26.5q20 -10 33.5 -21.5t20.5 -36t9.5 -66.5t2.5 -109q0 -215 -177 -215q-166 0 -165 200zM313 -68l387 1502h101l-393 -1502h-95zM684 180v113l197 526h131v-520h47v-119h-47v-180h-133v180h-195zM784 291h99v309z" />
<glyph unicode="&#xbf;" horiz-adv-x="665" d="M78 -123q0 31 2 51.5t14 51t37 80t70 135.5q14 29 24.5 56.5t16.5 60t8 72.5t2 95v162h158v-217q0 -68 -2 -110t-11.5 -80.5t-29 -88t-54.5 -133.5q-16 -37 -25 -60.5t-14.5 -38.5t-7.5 -26.5t-2 -21.5q0 -23 18.5 -40.5t45.5 -17.5q29 0 51 30t45 100l160 -56 q-61 -244 -267 -243q-109 0 -174 65.5t-65 173.5zM238 813v205h190v-205h-190z" />
<glyph unicode="&#xc0;" horiz-adv-x="720" d="M55 0l187 1366h245l179 -1366h-187l-35 307h-172l-32 -307h-185zM160 1628h198l93 -153h-144zM293 485h131l-66 633z" />
<glyph unicode="&#xc1;" horiz-adv-x="720" d="M55 0l187 1366h245l179 -1366h-187l-35 307h-172l-32 -307h-185zM256 1475l94 153h197l-148 -153h-143zM293 485h131l-66 633z" />
<glyph unicode="&#xc2;" horiz-adv-x="720" d="M55 0l187 1366h245l179 -1366h-187l-35 307h-172l-32 -307h-185zM172 1475l92 155h193l92 -155h-143l-46 53l-45 -53h-143zM293 485h131l-66 633z" />
<glyph unicode="&#xc3;" horiz-adv-x="720" d="M55 0l187 1366h245l179 -1366h-187l-35 307h-172l-32 -307h-185zM193 1470v142q45 31 96 30q35 0 73 -16q37 -16 52.5 -20t31.5 -4q20 0 36 6t46 28v-141q-31 -23 -46 -29t-36 -6q-16 0 -31.5 4t-52.5 21q-39 16 -73 16q-51 0 -96 -31zM293 485h131l-66 633z" />
<glyph unicode="&#xc4;" horiz-adv-x="720" d="M55 0l187 1366h245l179 -1366h-187l-35 307h-172l-32 -307h-185zM150 1475v182h157v-182h-157zM293 485h131l-66 633zM416 1475v182h157v-182h-157z" />
<glyph unicode="&#xc5;" horiz-adv-x="720" d="M55 0l187 1366h245l179 -1366h-187l-35 307h-172l-32 -307h-185zM211 1563q0 59 44 101t107 42q61 0 105.5 -42t44.5 -99q0 -61 -44 -103.5t-106 -42.5q-63 0 -107 42t-44 102zM287 1563q0 -29 21.5 -50.5t53.5 -21.5q31 0 52.5 21.5t21.5 50.5q0 31 -21.5 51t-54.5 20 q-31 0 -52 -21.5t-21 -49.5zM293 485h131l-66 633z" />
<glyph unicode="&#xc6;" horiz-adv-x="1005" d="M20 0l345 1366h579v-178h-272v-383h192v-178h-192v-449h291v-178h-482v307h-194l-72 -307h-195zM328 485h153v645z" />
<glyph unicode="&#xc7;" d="M80 307v752q0 328 268 327q276 0 277 -356v-46t-4 -62h-191q4 35 4 52v42q0 113 -17.5 152.5t-68.5 39.5q-47 0 -62.5 -29.5t-15.5 -119.5v-752q0 -90 15.5 -119.5t62.5 -29.5q49 0 67.5 37.5t18.5 144.5q0 35 -1 64.5t-3 80.5h191q2 -55 3 -84.5t1 -58.5 q0 -362 -277 -362q-268 0 -268 327zM272 -94h160v-139l-45 -115h-96l35 115h-54v139z" />
<glyph unicode="&#xc8;" horiz-adv-x="602" d="M82 0v1366h461v-178h-271v-383h189v-178h-189v-449h287v-178h-477zM100 1628h199l92 -153h-143z" />
<glyph unicode="&#xc9;" horiz-adv-x="602" d="M82 0v1366h461v-178h-271v-383h189v-178h-189v-449h287v-178h-477zM197 1475l94 153h196l-147 -153h-143z" />
<glyph unicode="&#xca;" horiz-adv-x="602" d="M82 0v1366h461v-178h-271v-383h189v-178h-189v-449h287v-178h-477zM113 1475l92 155h192l92 -155h-143l-45 53l-45 -53h-143z" />
<glyph unicode="&#xcb;" horiz-adv-x="602" d="M82 0v1366h461v-178h-271v-383h189v-178h-189v-449h287v-178h-477zM90 1475v182h158v-182h-158zM356 1475v182h158v-182h-158z" />
<glyph unicode="&#xcc;" horiz-adv-x="354" d="M-23 1628h199l92 -153h-143zM82 0v1366h190v-1366h-190z" />
<glyph unicode="&#xcd;" horiz-adv-x="354" d="M74 1475l94 153h197l-148 -153h-143zM82 0v1366h190v-1366h-190z" />
<glyph unicode="&#xce;" horiz-adv-x="354" d="M-10 1475l92 155h192l93 -155h-144l-45 53l-45 -53h-143zM82 0v1366h190v-1366h-190z" />
<glyph unicode="&#xcf;" horiz-adv-x="354" d="M-20 1475v182h157v-182h-157zM82 0v1366h190v-1366h-190zM217 1475v182h158v-182h-158z" />
<glyph unicode="&#xd0;" horiz-adv-x="702" d="M12 627v178h70v561h203q100 0 154.5 -16.5t97.5 -59.5q86 -84 86 -239v-736q0 -158 -86 -239q-43 -43 -97.5 -59.5t-154.5 -16.5h-203v627h-70zM272 178h25q78 0 106.5 29t28.5 108v736q0 78 -28.5 107.5t-106.5 29.5h-25v-383h66v-178h-66v-449z" />
<glyph unicode="&#xd1;" horiz-adv-x="770" d="M82 0v1366h164l252 -805v805h190v-1366h-190l-226 717v-717h-190zM217 1470v142q45 31 96 30q35 0 74 -16q37 -16 52.5 -20t31.5 -4q20 0 35.5 6t46.5 28v-141q-31 -23 -46 -29t-36 -6q-16 0 -31.5 4t-52.5 21q-39 16 -74 16q-51 0 -96 -31z" />
<glyph unicode="&#xd2;" horiz-adv-x="698" d="M80 348v672q0 61 1 100t6 66.5t13.5 47t22.5 42.5q35 51 95.5 80.5t131.5 29.5q72 0 132.5 -29.5t95.5 -80.5q14 -23 22 -42.5t12 -47t6.5 -66.5t2.5 -100v-672q0 -61 -2.5 -100t-6.5 -66.5t-12 -47t-22 -42.5q-35 -53 -95.5 -82.5t-132.5 -29.5t-132 29.5t-95 82.5 q-14 23 -22.5 42.5t-13.5 47t-6 66.5t-1 100zM150 1628h198l92 -153h-143zM270 268q0 -59 18.5 -84.5t61.5 -25.5q41 0 60.5 25.5t19.5 84.5v830q0 59 -18.5 84.5t-61.5 25.5q-41 0 -60.5 -25.5t-19.5 -84.5v-830z" />
<glyph unicode="&#xd3;" horiz-adv-x="698" d="M80 348v672q0 61 1 100t6 66.5t13.5 47t22.5 42.5q35 51 95.5 80.5t131.5 29.5q72 0 132.5 -29.5t95.5 -80.5q14 -23 22 -42.5t12 -47t6.5 -66.5t2.5 -100v-672q0 -61 -2.5 -100t-6.5 -66.5t-12 -47t-22 -42.5q-35 -53 -95.5 -82.5t-132.5 -29.5t-132 29.5t-95 82.5 q-14 23 -22.5 42.5t-13.5 47t-6 66.5t-1 100zM246 1475l94 153h197l-148 -153h-143zM270 268q0 -59 18.5 -84.5t61.5 -25.5q41 0 60.5 25.5t19.5 84.5v830q0 59 -18.5 84.5t-61.5 25.5q-41 0 -60.5 -25.5t-19.5 -84.5v-830z" />
<glyph unicode="&#xd4;" horiz-adv-x="698" d="M80 348v672q0 61 1 100t6 66.5t13.5 47t22.5 42.5q35 51 95.5 80.5t131.5 29.5q72 0 132.5 -29.5t95.5 -80.5q14 -23 22 -42.5t12 -47t6.5 -66.5t2.5 -100v-672q0 -61 -2.5 -100t-6.5 -66.5t-12 -47t-22 -42.5q-35 -53 -95.5 -82.5t-132.5 -29.5t-132 29.5t-95 82.5 q-14 23 -22.5 42.5t-13.5 47t-6 66.5t-1 100zM162 1475l92 155h192l93 -155h-144l-45 53l-45 -53h-143zM270 268q0 -59 18.5 -84.5t61.5 -25.5q41 0 60.5 25.5t19.5 84.5v830q0 59 -18.5 84.5t-61.5 25.5q-41 0 -60.5 -25.5t-19.5 -84.5v-830z" />
<glyph unicode="&#xd5;" horiz-adv-x="698" d="M80 348v672q0 61 1 100t6 66.5t13.5 47t22.5 42.5q35 51 95.5 80.5t131.5 29.5q72 0 132.5 -29.5t95.5 -80.5q14 -23 22 -42.5t12 -47t6.5 -66.5t2.5 -100v-672q0 -61 -2.5 -100t-6.5 -66.5t-12 -47t-22 -42.5q-35 -53 -95.5 -82.5t-132.5 -29.5t-132 29.5t-95 82.5 q-14 23 -22.5 42.5t-13.5 47t-6 66.5t-1 100zM182 1470v142q45 31 97 30q35 0 73 -16q37 -16 52.5 -20t31.5 -4q20 0 35.5 6t46.5 28v-141q-31 -23 -46 -29t-36 -6q-16 0 -31.5 4t-52.5 21q-39 16 -73 16q-51 0 -97 -31zM270 268q0 -59 18.5 -84.5t61.5 -25.5 q41 0 60.5 25.5t19.5 84.5v830q0 59 -18.5 84.5t-61.5 25.5q-41 0 -60.5 -25.5t-19.5 -84.5v-830z" />
<glyph unicode="&#xd6;" horiz-adv-x="698" d="M80 348v672q0 61 1 100t6 66.5t13.5 47t22.5 42.5q35 51 95.5 80.5t131.5 29.5q72 0 132.5 -29.5t95.5 -80.5q14 -23 22 -42.5t12 -47t6.5 -66.5t2.5 -100v-672q0 -61 -2.5 -100t-6.5 -66.5t-12 -47t-22 -42.5q-35 -53 -95.5 -82.5t-132.5 -29.5t-132 29.5t-95 82.5 q-14 23 -22.5 42.5t-13.5 47t-6 66.5t-1 100zM139 1475v182h158v-182h-158zM270 268q0 -59 18.5 -84.5t61.5 -25.5q41 0 60.5 25.5t19.5 84.5v830q0 59 -18.5 84.5t-61.5 25.5q-41 0 -60.5 -25.5t-19.5 -84.5v-830zM406 1475v182h157v-182h-157z" />
<glyph unicode="&#xd7;" d="M90 860l105 105l157 -156l142 139l96 -94l-141 -141l153 -156l-104 -104l-154 153l-139 -137l-96 94l139 139z" />
<glyph unicode="&#xd8;" horiz-adv-x="698" d="M78 -66l47 152q-14 23 -23.5 45.5t-14.5 50t-7 64.5t-2 90v684q0 61 1 100t6 66.5t13 47t23 42.5q35 53 94 81.5t133 28.5q92 0 168 -51l29 95h73l-47 -150q14 -25 24.5 -45.5t14.5 -48t6 -66.5t2 -100v-672q0 -61 -2 -100t-6 -66.5t-12 -47t-23 -42.5q-35 -53 -95 -82.5 t-132 -29.5q-98 0 -172 55l-33 -101h-65zM268 268q0 -59 18.5 -84.5t61.5 -25.5q41 0 60.5 25.5t19.5 84.5v559l-160 -499v-60zM268 547l160 508v43q0 59 -18.5 85.5t-61.5 26.5q-80 0 -80 -112v-551z" />
<glyph unicode="&#xd9;" horiz-adv-x="704" d="M82 346v1020h190v-1098q0 -59 19.5 -84.5t60.5 -25.5q43 0 61.5 25.5t18.5 84.5v1098h191v-1020q0 -61 -2.5 -100t-6.5 -66.5t-12 -47t-22 -42.5q-35 -51 -95.5 -80.5t-132.5 -29.5t-132 29.5t-95 80.5q-14 23 -22.5 42.5t-13.5 47t-6 66.5t-1 100zM152 1628h198l92 -153 h-143z" />
<glyph unicode="&#xda;" horiz-adv-x="704" d="M82 346v1020h190v-1098q0 -59 19.5 -84.5t60.5 -25.5q43 0 61.5 25.5t18.5 84.5v1098h191v-1020q0 -61 -2.5 -100t-6.5 -66.5t-12 -47t-22 -42.5q-35 -51 -95.5 -80.5t-132.5 -29.5t-132 29.5t-95 80.5q-14 23 -22.5 42.5t-13.5 47t-6 66.5t-1 100zM248 1475l94 153h197 l-148 -153h-143z" />
<glyph unicode="&#xdb;" horiz-adv-x="704" d="M82 346v1020h190v-1098q0 -59 19.5 -84.5t60.5 -25.5q43 0 61.5 25.5t18.5 84.5v1098h191v-1020q0 -61 -2.5 -100t-6.5 -66.5t-12 -47t-22 -42.5q-35 -51 -95.5 -80.5t-132.5 -29.5t-132 29.5t-95 80.5q-14 23 -22.5 42.5t-13.5 47t-6 66.5t-1 100zM164 1475l92 155h193 l92 -155h-144l-45 53l-45 -53h-143z" />
<glyph unicode="&#xdc;" horiz-adv-x="704" d="M82 346v1020h190v-1098q0 -59 19.5 -84.5t60.5 -25.5q43 0 61.5 25.5t18.5 84.5v1098h191v-1020q0 -61 -2.5 -100t-6.5 -66.5t-12 -47t-22 -42.5q-35 -51 -95.5 -80.5t-132.5 -29.5t-132 29.5t-95 80.5q-14 23 -22.5 42.5t-13.5 47t-6 66.5t-1 100zM141 1475v182h158 v-182h-158zM408 1475v182h157v-182h-157z" />
<glyph unicode="&#xdd;" horiz-adv-x="669" d="M27 1366h206l105 -504l104 504h201l-213 -799v-567h-190v567zM229 1475l95 153h196l-147 -153h-144z" />
<glyph unicode="&#xde;" horiz-adv-x="673" d="M82 0v1366h190v-164h35q100 0 159.5 -26.5t98.5 -92.5q14 -27 24.5 -53t16.5 -58t9 -73t3 -98q0 -72 -3 -121t-11 -86t-22.5 -63.5t-34.5 -51.5q-76 -88 -248 -88h-27v-391h-190zM272 567h27q102 0 123 66q4 16 8 63t4 101q0 51 -4 98t-8 63q-20 66 -123 66h-27v-457z " />
<glyph unicode="&#xdf;" horiz-adv-x="632" d="M76 0v1040q0 96 7 146.5t30 91.5q53 102 198 102q121 0 177.5 -69.5t56.5 -218.5v-54q0 -55 -3 -90t-12.5 -57.5t-26 -37.5t-44.5 -32q57 -16 78.5 -47t21.5 -102v-340q0 -66 -2 -111t-8 -77.5t-16.5 -54t-24.5 -40.5q-23 -27 -70 -45t-92 -18h-13t-22 2v164 q43 0 56.5 24.5t13.5 104.5v337q0 80 -13.5 101.5t-60.5 21.5v160q39 0 49.5 12.5t10.5 59.5v147q0 55 -13.5 80t-44.5 25q-16 0 -27.5 -6.5t-17.5 -23.5t-8 -47t-2 -77v-1071h-178z" />
<glyph unicode="&#xe0;" horiz-adv-x="626" d="M61 244q0 82 20.5 142t65.5 112q16 18 27.5 28.5t29 23.5t47.5 33.5t83 55.5q10 4 17 10t18 13v114q0 59 -10.5 75.5t-45.5 16.5q-20 0 -32.5 -6t-20.5 -22.5t-13 -46t-7 -74.5h-172q8 86 18 131t33 80q59 102 196 102q113 0 172.5 -62.5t59.5 -181.5v-624q0 -33 1 -55.5 t2 -40t5 -34t10 -34.5h-184q-4 16 -7 37.5t-5 44.5q-63 -96 -152 -96q-156 0 -156 258zM113 1337h198l92 -153h-143zM240 260q0 -109 55 -108q39 0 74 53v317q-72 -59 -100.5 -118.5t-28.5 -143.5z" />
<glyph unicode="&#xe1;" horiz-adv-x="626" d="M61 244q0 82 20.5 142t65.5 112q16 18 27.5 28.5t29 23.5t47.5 33.5t83 55.5q10 4 17 10t18 13v114q0 59 -10.5 75.5t-45.5 16.5q-20 0 -32.5 -6t-20.5 -22.5t-13 -46t-7 -74.5h-172q8 86 18 131t33 80q59 102 196 102q113 0 172.5 -62.5t59.5 -181.5v-624q0 -33 1 -55.5 t2 -40t5 -34t10 -34.5h-184q-4 16 -7 37.5t-5 44.5q-63 -96 -152 -96q-156 0 -156 258zM209 1184l94 153h197l-148 -153h-143zM240 260q0 -109 55 -108q39 0 74 53v317q-72 -59 -100.5 -118.5t-28.5 -143.5z" />
<glyph unicode="&#xe2;" horiz-adv-x="626" d="M61 244q0 82 20.5 142t65.5 112q16 18 27.5 28.5t29 23.5t47.5 33.5t83 55.5q10 4 17 10t18 13v114q0 59 -10.5 75.5t-45.5 16.5q-20 0 -32.5 -6t-20.5 -22.5t-13 -46t-7 -74.5h-172q8 86 18 131t33 80q59 102 196 102q113 0 172.5 -62.5t59.5 -181.5v-624q0 -33 1 -55.5 t2 -40t5 -34t10 -34.5h-184q-4 16 -7 37.5t-5 44.5q-63 -96 -152 -96q-156 0 -156 258zM125 1184l92 155h193l92 -155h-144l-45 53l-45 -53h-143zM240 260q0 -109 55 -108q39 0 74 53v317q-72 -59 -100.5 -118.5t-28.5 -143.5z" />
<glyph unicode="&#xe3;" horiz-adv-x="626" d="M61 244q0 82 20.5 142t65.5 112q16 18 27.5 28.5t29 23.5t47.5 33.5t83 55.5q10 4 17 10t18 13v114q0 59 -10.5 75.5t-45.5 16.5q-20 0 -32.5 -6t-20.5 -22.5t-13 -46t-7 -74.5h-172q8 86 18 131t33 80q59 102 196 102q113 0 172.5 -62.5t59.5 -181.5v-624q0 -33 1 -55.5 t2 -40t5 -34t10 -34.5h-184q-4 16 -7 37.5t-5 44.5q-63 -96 -152 -96q-156 0 -156 258zM145 1180v141q45 31 97 31q35 0 73 -17q37 -16 52.5 -20t31.5 -4q20 0 36 7t46 30v-142q-31 -23 -46 -30t-36 -7q-16 0 -31.5 4.5t-52.5 20.5q-39 16 -73 16q-29 0 -49.5 -7t-47.5 -23z M240 260q0 -109 55 -108q39 0 74 53v317q-72 -59 -100.5 -118.5t-28.5 -143.5z" />
<glyph unicode="&#xe4;" horiz-adv-x="626" d="M61 244q0 82 20.5 142t65.5 112q16 18 27.5 28.5t29 23.5t47.5 33.5t83 55.5q10 4 17 10t18 13v114q0 59 -10.5 75.5t-45.5 16.5q-20 0 -32.5 -6t-20.5 -22.5t-13 -46t-7 -74.5h-172q8 86 18 131t33 80q59 102 196 102q113 0 172.5 -62.5t59.5 -181.5v-624q0 -33 1 -55.5 t2 -40t5 -34t10 -34.5h-184q-4 16 -7 37.5t-5 44.5q-63 -96 -152 -96q-156 0 -156 258zM113 1184v182h157v-182h-157zM240 260q0 -109 55 -108q39 0 74 53v317q-72 -59 -100.5 -118.5t-28.5 -143.5zM358 1184v182h158v-182h-158z" />
<glyph unicode="&#xe5;" horiz-adv-x="626" d="M61 244q0 82 20.5 142t65.5 112q16 18 27.5 28.5t29 23.5t47.5 33.5t83 55.5q10 4 17 10t18 13v114q0 59 -10.5 75.5t-45.5 16.5q-20 0 -32.5 -6t-20.5 -22.5t-13 -46t-7 -74.5h-172q8 86 18 131t33 80q59 102 196 102q113 0 172.5 -62.5t59.5 -181.5v-624q0 -33 1 -55.5 t2 -40t5 -34t10 -34.5h-184q-4 16 -7 37.5t-5 44.5q-63 -96 -152 -96q-156 0 -156 258zM164 1288q0 59 44 100.5t107 41.5q61 0 105.5 -41t44.5 -101q0 -59 -44 -101t-106 -42q-63 0 -107 42t-44 101zM240 260q0 -109 55 -108q39 0 74 53v317q-72 -59 -100.5 -118.5 t-28.5 -143.5zM240 1288q0 -29 21.5 -50t53.5 -21q31 0 52.5 21.5t21.5 49.5q0 29 -21.5 49.5t-54.5 20.5q-29 0 -51 -20.5t-22 -49.5z" />
<glyph unicode="&#xe6;" horiz-adv-x="929" d="M61 242q0 162 86 256q14 18 25.5 28.5t29 23.5t47.5 33.5t85 55.5l35 23v114q0 59 -10.5 75.5t-45.5 16.5q-20 0 -32.5 -6t-20.5 -22.5t-13 -46t-7 -74.5h-172q8 86 18 130t33 81q61 102 192 102q51 0 83 -15.5t69 -55.5q35 41 68.5 56t89.5 15q109 0 171 -68.5 t62 -185.5v-299h-307v-225q0 -55 14 -79.5t49 -24.5t51.5 27.5t16.5 92.5v45v41h176q0 -25 1 -39t1 -23v-15.5v-14.5q0 -279 -254 -278q-72 0 -112.5 20.5t-81.5 77.5q-53 -55 -92.5 -76.5t-86.5 -21.5q-168 0 -168 256zM240 260q0 -109 55 -108q37 0 74 57v313 q-72 -59 -100.5 -117.5t-28.5 -144.5zM547 621h129v172q0 76 -64 75q-66 0 -65 -75v-172z" />
<glyph unicode="&#xe7;" horiz-adv-x="612" d="M72 272v473q0 72 12 118t43 83q68 86 184 86q121 0 185.5 -70.5t64.5 -203.5v-16.5v-15.5t-1 -23.5t-3 -40.5h-176v40v46q0 68 -14.5 94t-53.5 26q-35 0 -49 -24.5t-14 -79.5v-510q0 -55 14.5 -79.5t48.5 -24.5q39 0 53.5 26.5t14.5 93.5v45v58h176q2 -31 3 -47.5 t1 -27.5v-18.5v-15.5q0 -135 -63.5 -206.5t-186.5 -71.5q-117 0 -184 86q-31 37 -43 83t-12 117zM236 -94h159v-139l-45 -115h-96l35 115h-53v139z" />
<glyph unicode="&#xe8;" horiz-adv-x="632" d="M72 272v476q0 285 247 284q111 0 174.5 -67.5t63.5 -186.5v-299h-307v-225q0 -55 14.5 -79.5t48.5 -24.5q35 0 51.5 27.5t16.5 92.5v45v41h176q0 -25 1 -39t1 -23v-15.5v-14.5q0 -135 -63.5 -206.5t-184.5 -71.5q-117 0 -184 86q-31 39 -43 84t-12 116zM117 1337h198 l93 -153h-144zM250 621h129v172q0 76 -64 75q-66 0 -65 -75v-172z" />
<glyph unicode="&#xe9;" horiz-adv-x="632" d="M72 272v476q0 285 247 284q111 0 174.5 -67.5t63.5 -186.5v-299h-307v-225q0 -55 14.5 -79.5t48.5 -24.5q35 0 51.5 27.5t16.5 92.5v45v41h176q0 -25 1 -39t1 -23v-15.5v-14.5q0 -135 -63.5 -206.5t-184.5 -71.5q-117 0 -184 86q-31 39 -43 84t-12 116zM211 1184l94 153 h197l-148 -153h-143zM250 621h129v172q0 76 -64 75q-66 0 -65 -75v-172z" />
<glyph unicode="&#xea;" horiz-adv-x="632" d="M72 272v476q0 285 247 284q111 0 174.5 -67.5t63.5 -186.5v-299h-307v-225q0 -55 14.5 -79.5t48.5 -24.5q35 0 51.5 27.5t16.5 92.5v45v41h176q0 -25 1 -39t1 -23v-15.5v-14.5q0 -135 -63.5 -206.5t-184.5 -71.5q-117 0 -184 86q-31 39 -43 84t-12 116zM127 1184l92 155 h193l92 -155h-144l-45 53l-45 -53h-143zM250 621h129v172q0 76 -64 75q-66 0 -65 -75v-172z" />
<glyph unicode="&#xeb;" horiz-adv-x="632" d="M72 272v476q0 285 247 284q111 0 174.5 -67.5t63.5 -186.5v-299h-307v-225q0 -55 14.5 -79.5t48.5 -24.5q35 0 51.5 27.5t16.5 92.5v45v41h176q0 -25 1 -39t1 -23v-15.5v-14.5q0 -135 -63.5 -206.5t-184.5 -71.5q-117 0 -184 86q-31 39 -43 84t-12 116zM115 1184v182h157 v-182h-157zM250 621h129v172q0 76 -64 75q-66 0 -65 -75v-172zM360 1184v182h158v-182h-158z" />
<glyph unicode="&#xec;" horiz-adv-x="329" d="M-35 1337h199l92 -153h-143zM76 0v1018h178v-1018h-178z" />
<glyph unicode="&#xed;" horiz-adv-x="329" d="M61 1184l95 153h196l-147 -153h-144zM78 0v1018h178v-1018h-178z" />
<glyph unicode="&#xee;" horiz-adv-x="329" d="M-23 1184l93 155h192l92 -155h-143l-45 53l-45 -53h-144zM78 0v1018h178v-1018h-178z" />
<glyph unicode="&#xef;" horiz-adv-x="329" d="M-23 1184v182h158v-182h-158zM76 0v1018h178v-1018h-178zM195 1184v182h157v-182h-157z" />
<glyph unicode="&#xf0;" horiz-adv-x="630" d="M72 276v463q0 129 43 201q23 41 68.5 65.5t92.5 24.5q29 0 50.5 -8t56.5 -31q-16 68 -31.5 112t-38.5 75l-90 -76l-53 63l94 80q-16 20 -28.5 32.5t-30.5 29.5l90 88q20 -16 31.5 -26.5t38.5 -37.5l110 90l53 -61l-108 -90q74 -102 105.5 -210t31.5 -251v-533 q0 -150 -61.5 -220t-190.5 -70q-233 0 -233 290zM250 248q0 -94 65 -94q63 0 64 94v524q0 94 -64 94q-66 0 -65 -94v-524z" />
<glyph unicode="&#xf1;" horiz-adv-x="634" d="M76 0v1018h174l4 -88q55 59 91 80.5t77 21.5q31 0 60.5 -16.5t45.5 -40.5q16 -27 22.5 -62.5t6.5 -113.5v-799h-178v793q0 76 -47 75q-16 0 -32.5 -9t-45.5 -32v-827h-178zM150 1180v141q45 31 96 31q35 0 73 -17q37 -16 52.5 -20t31.5 -4q20 0 36 7t46 30v-142 q-31 -23 -46 -30t-36 -7q-16 0 -31.5 4.5t-52.5 20.5q-39 16 -73 16q-29 0 -49.5 -7t-46.5 -23z" />
<glyph unicode="&#xf2;" horiz-adv-x="630" d="M72 272v473q0 287 243 287q242 0 242 -287v-473q0 -287 -242 -286q-244 0 -243 286zM115 1337h198l93 -153h-144zM250 244q0 -94 65 -94q63 0 64 94v530q0 94 -64 94q-66 0 -65 -94v-530z" />
<glyph unicode="&#xf3;" horiz-adv-x="630" d="M72 272v473q0 287 243 287q242 0 242 -287v-473q0 -287 -242 -286q-244 0 -243 286zM211 1184l94 153h197l-148 -153h-143zM250 244q0 -94 65 -94q63 0 64 94v530q0 94 -64 94q-66 0 -65 -94v-530z" />
<glyph unicode="&#xf4;" horiz-adv-x="630" d="M72 272v473q0 287 243 287q242 0 242 -287v-473q0 -287 -242 -286q-244 0 -243 286zM127 1184l92 155h193l92 -155h-144l-45 53l-45 -53h-143zM250 244q0 -94 65 -94q63 0 64 94v530q0 94 -64 94q-66 0 -65 -94v-530z" />
<glyph unicode="&#xf5;" horiz-adv-x="630" d="M72 272v473q0 287 243 287q242 0 242 -287v-473q0 -287 -242 -286q-244 0 -243 286zM147 1180v141q45 31 97 31q35 0 73 -17q37 -16 52.5 -20t31.5 -4q20 0 36 7t46 30v-142q-31 -23 -46 -30t-36 -7q-16 0 -31.5 4.5t-52.5 20.5q-39 16 -73 16q-29 0 -49.5 -7t-47.5 -23z M250 244q0 -94 65 -94q63 0 64 94v530q0 94 -64 94q-66 0 -65 -94v-530z" />
<glyph unicode="&#xf6;" horiz-adv-x="630" d="M72 272v473q0 287 243 287q242 0 242 -287v-473q0 -287 -242 -286q-244 0 -243 286zM113 1184v182h157v-182h-157zM250 244q0 -94 65 -94q63 0 64 94v530q0 94 -64 94q-66 0 -65 -94v-530zM358 1184v182h158v-182h-158z" />
<glyph unicode="&#xf7;" d="M76 641v135h545v-135h-545zM274 350v158h148v-158h-148zM274 909v158h148v-158h-148z" />
<glyph unicode="&#xf8;" horiz-adv-x="630" d="M72 272v473q0 287 239 287q35 0 67 -7t54 -17l33 104h67l-45 -143q37 -39 53.5 -91.5t16.5 -132.5v-473q0 -287 -242 -286q-76 0 -131 30l-28 -90h-60l41 129q-37 41 -51 90.5t-14 126.5zM250 418l123 401q-12 49 -60 49q-63 0 -63 -94v-356zM252 223q8 -74 63 -73 q63 0 64 94v387z" />
<glyph unicode="&#xf9;" horiz-adv-x="634" d="M76 219v799h178v-793q0 -76 47 -75q16 0 32.5 9t45.5 31v828h178v-1018h-164l-14 88q-55 -59 -91 -80.5t-77 -21.5q-31 0 -60.5 16t-46.5 41q-16 27 -22 62.5t-6 113.5zM117 1337h198l93 -153h-144z" />
<glyph unicode="&#xfa;" horiz-adv-x="634" d="M76 219v799h178v-793q0 -76 47 -75q16 0 32.5 9t45.5 31v828h178v-1018h-164l-14 88q-55 -59 -91 -80.5t-77 -21.5q-31 0 -60.5 16t-46.5 41q-16 27 -22 62.5t-6 113.5zM213 1184l94 153h197l-148 -153h-143z" />
<glyph unicode="&#xfb;" horiz-adv-x="634" d="M76 219v799h178v-793q0 -76 47 -75q16 0 32.5 9t45.5 31v828h178v-1018h-164l-14 88q-55 -59 -91 -80.5t-77 -21.5q-31 0 -60.5 16t-46.5 41q-16 27 -22 62.5t-6 113.5zM129 1184l92 155h193l92 -155h-144l-45 53l-45 -53h-143z" />
<glyph unicode="&#xfc;" horiz-adv-x="634" d="M76 219v799h178v-793q0 -76 47 -75q16 0 32.5 9t45.5 31v828h178v-1018h-164l-14 88q-55 -59 -91 -80.5t-77 -21.5q-31 0 -60.5 16t-46.5 41q-16 27 -22 62.5t-6 113.5zM115 1184v182h157v-182h-157zM360 1184v182h158v-182h-158z" />
<glyph unicode="&#xfd;" horiz-adv-x="581" d="M35 1018h174l82 -598l86 598h172l-187 -1157q-35 -223 -258 -223q-23 0 -55 6v170h19q68 0 97.5 34.5t29.5 112.5v42t-2.5 35.5t-6.5 43t-10 65.5zM186 1184l95 153h196l-147 -153h-144z" />
<glyph unicode="&#xfe;" horiz-adv-x="630" d="M76 -348v1714h178v-444q51 61 89 85.5t79 24.5q31 0 60.5 -16.5t45.5 -42.5q16 -27 22.5 -64t6.5 -116v-568q0 -78 -6 -115.5t-23 -64.5q-16 -27 -44.5 -43t-61.5 -16q-41 0 -79 25.5t-89 84.5v-444h-178zM254 190q29 -23 45 -31.5t33 -8.5q47 0 47 75v568q0 76 -45 75 q-18 0 -34.5 -9t-45.5 -32v-637z" />
<glyph unicode="&#xff;" horiz-adv-x="581" d="M35 1018h174l82 -598l86 598h172l-187 -1157q-35 -223 -258 -223q-23 0 -55 6v170h19q68 0 97.5 34.5t29.5 112.5v42t-2.5 35.5t-6.5 43t-10 65.5zM90 1184v182h158v-182h-158zM336 1184v182h158v-182h-158z" />
<glyph unicode="&#x152;" horiz-adv-x="948" d="M80 369v630q0 51 1 84t3 56.5t6 39t12 33.5q45 113 172 144q14 4 24.5 6t25 3t39 1h67.5h459v-178h-268v-383h188v-178h-188v-449h284v-178h-475h-66.5t-39 1t-25.5 3t-25 6q-127 31 -172 144q-6 18 -11 34.5t-7 40t-3 56t-1 84.5zM270 289q0 -59 19.5 -85t60.5 -26h80 v1010h-80q-41 0 -60.5 -25.5t-19.5 -85.5v-788z" />
<glyph unicode="&#x153;" horiz-adv-x="942" d="M72 272v473q0 141 60.5 214t176.5 73q45 0 78 -10t82 -39q49 29 82 39t80 10q111 0 173 -68.5t62 -185.5v-299h-307v-225q0 -55 14.5 -79.5t49.5 -24.5q70 0 67 120v45v41h176q0 -25 1 -39t1 -23v-15.5v-14.5q0 -135 -63.5 -206.5t-181.5 -71.5q-47 0 -77 10t-77 45 q-43 -35 -73.5 -45t-86.5 -10q-117 0 -177 72.5t-60 213.5zM250 244q0 -94 65 -94q66 0 66 94v530q0 94 -66 94t-65 -94v-530zM559 621h129v172q0 76 -63 75q-66 0 -66 -75v-172z" />
<glyph unicode="&#x178;" horiz-adv-x="669" d="M27 1366h206l105 -504l104 504h201l-213 -799v-567h-190v567zM123 1475v182h158v-182h-158zM389 1475v182h158v-182h-158z" />
<glyph unicode="&#x2c6;" horiz-adv-x="1024" d="M324 1184l92 155h192l92 -155h-143l-45 53l-45 -53h-143z" />
<glyph unicode="&#x2dc;" horiz-adv-x="1024" d="M344 1180v141q45 31 96 31q35 0 74 -17q37 -16 52.5 -20t31.5 -4q20 0 35.5 7t46.5 30v-142q-31 -23 -46.5 -30t-35.5 -7q-16 0 -31.5 4.5t-52.5 20.5q-39 16 -74 16q-29 0 -49 -7t-47 -23z" />
<glyph unicode="&#x2000;" horiz-adv-x="853" />
<glyph unicode="&#x2001;" horiz-adv-x="1706" />
<glyph unicode="&#x2002;" horiz-adv-x="853" />
<glyph unicode="&#x2003;" horiz-adv-x="1706" />
<glyph unicode="&#x2004;" horiz-adv-x="568" />
<glyph unicode="&#x2005;" horiz-adv-x="426" />
<glyph unicode="&#x2006;" horiz-adv-x="284" />
<glyph unicode="&#x2007;" horiz-adv-x="284" />
<glyph unicode="&#x2008;" horiz-adv-x="213" />
<glyph unicode="&#x2009;" horiz-adv-x="341" />
<glyph unicode="&#x200a;" horiz-adv-x="94" />
<glyph unicode="&#x2010;" horiz-adv-x="256" d="M0 428v160h256v-160h-256z" />
<glyph unicode="&#x2011;" horiz-adv-x="256" d="M0 428v160h256v-160h-256z" />
<glyph unicode="&#x2012;" horiz-adv-x="256" d="M0 428v160h256v-160h-256z" />
<glyph unicode="&#x2013;" d="M78 428v160h540v-160h-540z" />
<glyph unicode="&#x2014;" horiz-adv-x="782" d="M0 428v160h782v-160h-782z" />
<glyph unicode="&#x2018;" horiz-adv-x="382" d="M96 946v205l86 242h105l-70 -242h70v-205h-191z" />
<glyph unicode="&#x2019;" horiz-adv-x="382" d="M96 920l70 241h-70v205h191v-205l-86 -241h-105z" />
<glyph unicode="&#x201a;" horiz-adv-x="382" d="M96 0v205h191v-205l-86 -242h-105l70 242h-70z" />
<glyph unicode="&#x201c;" horiz-adv-x="661" d="M96 946v205l86 242h105l-70 -242h70v-205h-191zM377 946v205l86 242h104l-69 -242h69v-205h-190z" />
<glyph unicode="&#x201d;" horiz-adv-x="661" d="M96 920l70 241h-70v205h191v-205l-86 -241h-105zM377 920l69 241h-69v205h190v-205l-86 -241h-104z" />
<glyph unicode="&#x201e;" horiz-adv-x="661" d="M96 0v205h191v-205l-86 -242h-105l70 242h-70zM377 0v205h190v-205l-86 -242h-104l69 242h-69z" />
<glyph unicode="&#x2022;" horiz-adv-x="1366" d="M401 694q0 59 22.5 111.5t61.5 90.5t91.5 60.5t113.5 22.5q57 0 107.5 -22.5t88.5 -61.5t60.5 -90t22.5 -109q0 -59 -22.5 -111.5t-60.5 -90t-90.5 -60t-109.5 -22.5q-59 0 -110.5 22.5t-90.5 60t-61.5 89t-22.5 110.5z" />
<glyph unicode="&#x2026;" horiz-adv-x="1146" d="M96 0v205h191v-205h-191zM479 0v205h191v-205h-191zM862 0v205h191v-205h-191z" />
<glyph unicode="&#x202f;" horiz-adv-x="341" />
<glyph unicode="&#x2039;" horiz-adv-x="319" d="M82 365v294l156 166v-243l-54 -70l54 -70v-243z" />
<glyph unicode="&#x203a;" horiz-adv-x="319" d="M82 199v243l53 70l-53 70v243l156 -166v-294z" />
<glyph unicode="&#x205f;" horiz-adv-x="426" />
<glyph unicode="&#x2122;" horiz-adv-x="1007" d="M61 1253v113h336v-113h-106v-665h-125v665h-105zM451 588v778h143l88 -375l86 375h145v-778h-108v471l-94 -471h-60l-94 469v-469h-106z" />
<glyph unicode="&#x25fc;" horiz-adv-x="1013" d="M0 0v1014h1014v-1014h-1014z" />
</font>
</defs>
</svg>
